<?xml version="1.0" encoding="UTF-8"?>
<svg width="714px" height="288px" viewBox="0 0 714 288" version="1.1" xmlns="http://www.w3.org/2000/svg" xmlns:xlink="http://www.w3.org/1999/xlink">
    <!-- Generator: Sketch 53.2 (72643) - https://sketchapp.com -->
    <title>evo-logo</title>
    <desc>Created with Sketch.</desc>
    <g id="Page-1" stroke="none" stroke-width="1" fill="none" fill-rule="evenodd">
        <g id="evo-logo" fill="#FFFFFF" fill-rule="nonzero">
            <polygon id="Path" points="352.9 188.7 353.2 188.9 396 7.4 478.5 7.4 396.3 282.7 307.1 282.7 217.2 7.4 306.2 7.4"></polygon>
            <path d="M215.4,31.5 C203.7,9.7 179.9,5.6 157.4,4.1 L68.1,3.8 C55.7,4.1 44.2,6 33.5,9.7 C12,16.6 1,39.3 0.3,60.5 L0.3,221.7 C1.4,240 8.4,256.7 24.2,267.8 C46.6,282.6 73.9,285.5 101.7,287.3 C144,289.4 185.1,286.3 221.9,274.1 L221.9,206.7 C208.9,213.2 195.7,219.5 181.7,223.7 C155.5,230.2 121.7,232.6 95.5,224.7 C86.7,221.7 77.7,213.4 76.7,203.7 L76.6,171.7 L221.9,171.3 L221.9,68.8 C222,55.3 221.2,42.3 215.4,31.5 Z M145,122.9 L75.8,122.9 L76.1,76 C76.9,69.7 80.6,63.7 86.5,60.5 C100.2,54.2 119.2,54.1 133.7,58.4 C136.9,59.5 140,62.1 141.8,65.1 C144.1,68.9 144.8,73.6 145,78.4 L145,122.9 Z" id="Shape"></path>
            <path d="M687.3,14.6 C667,4.6 643.4,2.8 619.7,1.2 C581.5,0.1 542.2,-0.3 509.2,12.9 C490.1,19.8 473.9,39.5 473.7,60.2 L473.6,222.1 C472.9,236 476.3,248 485.4,257.9 C508,279.9 538.9,282.1 569.4,285.2 C605.9,286.6 643.9,286.7 675.9,274.6 C694.2,268.1 713,250.7 713.2,230 L713.2,60.4 C713.3,41.6 704.8,23.4 687.3,14.6 Z M630.9,209.7 C630.1,215.5 626.4,221.4 620.6,224.1 C605.8,230 584.5,230.7 569.7,224.2 C560.9,219.8 557.6,210.6 557.6,201.3 L557.7,78.8 C558.4,72.2 561.1,65.9 567.3,62.2 C580.7,55.7 599.8,56.3 614.6,59.5 C620.4,61.1 626.7,65 629,71 L631.1,78.7 L630.9,209.7 Z" id="Shape"></path>
        </g>
    </g>
</svg>